<?xml version="1.0" encoding="utf-8"?>
<!-- Generator: Adobe Illustrator 22.1.0, SVG Export Plug-In . SVG Version: 6.00 Build 0)  -->
<svg version="1.1" xmlns="http://www.w3.org/2000/svg" xmlns:xlink="http://www.w3.org/1999/xlink" x="0px" y="0px"
	 viewBox="0 0 416 416" enable-background="new 0 0 416 416" xml:space="preserve">
<g id="Layer_1">
	<g>
		<path d="M166.9,303.8c0,0,17.8,15.4,20.8,33.5s-0.6,36.8-8.5,44.9c-7.9,8.2-19.5,10.3-31.7,8.6c-20.7-2.8-28-36.3-30.2-44.1
			c-2.2-7.8-7.8-49.4,7.8-49.8C140.7,296.5,166.9,303.8,166.9,303.8z"/>
		<polygon points="381,349.9 366.5,208.4 357.5,210.2 340.1,30.7 44,65 80.5,360.9 199.4,343.7 203.3,371.3 		"/>
		<path fill="#FFFFFF" d="M357.5,221.1l-91.6,16.6c-2.3,2.9-7.9,8.1-10.6,9.4c-11.6,5.8-19.4,4.1-26.2,2.4
			c-4.3-1.1-6.9-1.7-10.5-3.3l-22.4,3.1l13.6,113.3l157-28.3L357.5,221.1z"/>
		<path fill="#FFFFFF" d="M301.4,185.5c-2.6-8.6-16.3-25.6-17.3-26.6c-3.4-3.3,0.6-16.1-6.2-30c-7.2-14.7-26-30.1-34.2-36.8
			c2.4,1.8,17.2,7.7,24.1,16c0.6-0.9,0.9-5.3,1.5-6.5c-5.9-7.8-6.4-21.6-6.4-25.3c0-6.8-3.4-14.4-3.4-14.4s5.9,4.7,7.5,12.8
			c1.8,9.6,5.7,17.1,10.8,23.5c9.7,12,18.4,18.2,22.8,13.8c5.3-5.3-5.3-29.2-18.9-42.6c-15.8-15.5-20-13.5-29.3-10.2
			c-7.4,2.6-11.4,23.7-30.7,23.3c-3.3-0.4-11.7-0.6-15.9-0.6c2.2-3,4-5.4,4-5.4s-6.5,2.6-12,5.9l-0.4-0.6c1.9-3.9,3.9-6.4,3.9-6.4
			s-5.2,3.1-9.9,6.8c0.9-4.7,4.1-7.7,4.1-7.7s-6.5,1.2-14.9,10.4c-9.5,2.6-11.8,4.3-19.3,7.6c-12.3-2.7-18.1-7-23.6-15
			c-4.2-6.1-11.7-7-19.3-3.9c-11.1,4.6-25.2,10.9-25.2,10.9s4.6-0.2,9.4,0c-6.5,2.5-12.9,5.9-12.9,5.9s3.1-0.1,6.9,0
			c-2.6,2.2-4.1,3.2-6.5,4.9c-6,4.3-10.9,9.4-10.9,9.4s4.1-1.9,7.7-2.9c-2.6,5.9-7.6,10.2-6.7,17.3c0.9,6.5,8.9,20,19.3,28.3
			c0.9,0.7,15.1,13.8,25.7,8.4c10.7-5.4,14.9-10.2,16.6-17.5c2.1-8.4,0.9-14.8-3.5-33.1c-1.5-6-5.2-18.5-7.1-24.4l0.4-0.3
			c3.5,7.4,12.4,26.8,16,39.8c5.6,20.4,3.9,30.7,1.3,34.5c-7.8,11.4-27.6,12.9-36.7,6.6c-1.4,21.9,3.5,31.6,5.2,36.4
			c-0.8,5.6,2.8,16,2.8,16s0.4-4.7,2.1-7.2c0.4,5.5,3.2,12.1,3.2,12.1s-0.2-4.1,1.1-7.6c1.8,3,3.1,3.8,4.8,6
			c1.7,5.9,5.1,10.3,5.1,10.3s-0.6-3.2-0.2-6.5c8.3,8,9.7,19.6,10.5,28.5c2.3,24.6-38.7,44.1-46.7,59.4c-6,9.1-9.6,23.5,0.6,32
			c24.7,20.5,15.2,26.1,27.6,35.1c16.9,12.4,38.2,6.8,45.4-3.2c10.1-14,7.5-27.2,3.7-39.6c-2.9-9.7-10.8-25.7-20.7-31.9
			c-10-6.3-19.8-7.5-28-6.7l0.8-0.9c11.9-2.4,24.3-1.1,33.3,4.7c10.2,6.6,19.5,17.8,24.4,35c5.5-0.8,6.3-1.1,11.4-1.9l-11.4-88.8
			l24.1-2.7c-11.3-7.3-23-17.7-28.1-23.4c-0.9-0.6-0.7-3.5-0.7-3.5c4.6,3.6,23.8,17.3,44,23.5c7.1,2.2,18.1,3,27.6-2.4
			c7.3-4.1,16-11.3,21.2-18.7l1,1.7c0,1.1-2.4,6.5-3.7,8.6c2.2,1.3,3.9,1.6,6.3,2.3l16.8-2.6C301.7,216.1,306,200.4,301.4,185.5z
			 M210.6,162.8c-3.5,0.5-7.8,1.3-13,3c-3.1,1-5.7,2.1-8,3.2c-0.6-0.4-1.3-0.9-2.1-1.6c-8-6.9-7.7-19.1,0.6-24.7
			c11.3-7.7,25.8-4.7,23.4-2.4c-4.6,4.4,1.5,3.1,2.2,11.3C214.2,157.6,212.2,160.9,210.6,162.8z M268.5,129.3
			c10.5,4.9,9.1,14.2,9.4,19.6c0.1,1.6,0.1,2.6-0.1,3.4c-1.5-0.8-3.8-1.4-7.4-1.2c-1.1,0-2.1,0.2-3.1,0.3c-3.9-2.1-6.2-6.1-8.3-10.5
			c-0.2-0.4-0.3-0.8-0.5-1.1c-0.1-0.2-0.1-0.3-0.2-0.5c0-0.1,0-0.1-0.1-0.2c-1.2-3.7-0.4-4.4,0.1-5.6c0.5-1.2,2.4-2.1-0.4-3.1
			c-0.2-0.1-0.5-0.1-0.9-0.2C259,128,264.5,127.4,268.5,129.3z M288.7,195c-2.7,6.3-6.6,13.2-10.9,13.7c-7.1,0.9-13.8-2.9-21.5-8.6
			c-2.7-2-4.4-7-0.7-9.9c2-1.6,11.3-4.6,20-5.6c4.5-0.5,11-0.8,12.3-0.1C290.5,186.1,290.5,190.7,288.7,195z"/>
	</g>
	
		<linearGradient id="SVGID_1_" gradientUnits="userSpaceOnUse" x1="-832.4511" y1="-865.0745" x2="-832.4511" y2="-867.493" gradientTransform="matrix(39.2694 -5.2597 -4.7132 -35.1891 28890.9863 -34570.625)">
		<stop  offset="0" style="stop-color:#F68A38"/>
		<stop  offset="1" style="stop-color:#EE2E2B"/>
	</linearGradient>
	<path fill="url(#SVGID_1_)" d="M313.2,325c-10.3,8-25.6,10.7-42,6.1c-13.2-3.7-24.9-11.6-33-21.4c3.6,2.2,7.6,3.9,11.8,5.2
		c17,5.4,32.9,2.7,43.2-5.8c0,0,0,0,0,0c-17.6-10.1-33.4-24.3-45.3-36c-2.4-1.8-4.4-4.3-6.3-6.5c13.8,9.6,35.1,21.1,42.6,24.1
		c-16.7-13.5-32.4-30.9-31.8-30.5c26.3,20.4,49.7,30.8,49.7,30.8c0.8,0.3,1.4,0.6,1.8,0.8c0.3-1.3,0.6-2.5,0.7-3.9
		c1.9-14.1-4.4-29-15.5-40.5c23.3,10.2,39.4,33,36.8,54.2c-0.1,0.6-0.1,1.1-0.2,1.7c0.1,0.1,0.1,0.1,0.2,0.2
		c12.4,11.9,11.4,26.4,9.7,23.9C328.5,317,318.3,321.9,313.2,325L313.2,325z"/>
</g>
<g id="Layer_2">
</g>
<g id="Layer_3">
</g>
</svg>
